<?xml version="1.0" encoding="utf-8"?>
<!-- Generator: Adobe Illustrator 18.0.0, SVG Export Plug-In . SVG Version: 6.00 Build 0)  -->
<!DOCTYPE svg PUBLIC "-//W3C//DTD SVG 1.1//EN" "http://www.w3.org/Graphics/SVG/1.1/DTD/svg11.dtd">
<svg version="1.1" id="Layer_1" xmlns="http://www.w3.org/2000/svg" xmlns:xlink="http://www.w3.org/1999/xlink" x="0px" y="0px"
	 viewBox="0 0 30 30" enable-background="new 0 0 30 30" xml:space="preserve">
<g>
	<path d="M15,1C7.3,1,1,7.3,1,15c0,7.7,6.3,14,14,14c7.7,0,14-6.3,14-14S22.7,1,15,1"/>
	<path fill="#FFFFFF" d="M10.5,8.7c0.6,0,2,0.2,2.4,0.3c0.5,0.1,0.9,0.3,1.2,0.5c0.4,0.2,0.6,0.6,0.8,0.9c0.2,0.4,0.3,0.8,0.3,1.4
		c0,0.6-0.1,1.1-0.4,1.5c-0.3,0.4-0.6,0.7-1.2,1c0.7,0.2,1.3,0.6,1.7,1.1c0.4,0.6,0.6,1.2,0.6,1.9c0,0.6-0.1,1.1-0.4,1.6
		S15,19.7,14.6,20c-0.4,0.3-0.8,0.5-1.4,0.6c-0.6,0.1-1,0.2-1.6,0.2H5.9V8.7h5.5 M11.3,13.5c0.5,0,0.6,0,1-0.3
		c0.3-0.2,0.5-0.6,0.5-1.1c0-0.3-0.1-0.6-0.2-0.7c-0.1-0.2-0.3-0.3-0.4-0.5c-0.2-0.1-0.4-0.2-0.6-0.2c-0.2,0-0.5-0.1-0.6-0.1H8.5
		v2.9l3.5,0L11.3,13.5z M10.4,18.9c0.3,0,1.4-0.1,1.6-0.2c0.3-0.1,0.5-0.1,0.6-0.3c0.2-0.1,0.4-0.3,0.5-0.5s0.2-0.5,0.2-0.7
		c0-0.6-0.2-1.1-0.6-1.3c-0.4-0.3-0.8-0.4-1.4-0.4H8.5v3.3h2.8H10.4z"/>
	<path fill="#FFFFFF" d="M20.1,18.8c0.4,0.4,0.9,0.6,1.6,0.6c0.5,0,0.9-0.1,1.3-0.4c0.4-0.3,0.6-0.5,0.6-0.7h2.1
		c-0.4,1-0.8,1.8-1.6,2.2c-0.7,0.5-1.6,0.6-2.5,0.6c-0.6,0-1.3-0.1-1.8-0.4c-0.6-0.2-1-0.6-1.4-0.9c-0.4-0.4-0.6-0.9-0.9-1.5
		c-0.2-0.6-0.3-1.2-0.3-1.8c0-0.6,0.1-1.3,0.4-1.8c0.2-0.6,0.6-1,0.9-1.5c0.4-0.4,0.8-0.7,1.4-1c0.6-0.3,1.1-0.4,1.8-0.4
		s1.4,0.2,1.9,0.5s1,0.6,1.4,1.2c0.4,0.5,0.6,1,0.7,1.7C26,15.7,26,16.4,26,17h-6.3C19.5,17.8,19.7,18.4,20.1,18.8 M22.8,14.2
		c-0.3-0.3-0.7-0.5-1.4-0.5c-0.4,0-0.7,0.1-0.9,0.2c-0.3,0.1-0.5,0.3-0.6,0.5c-0.2,0.2-0.3,0.4-0.4,0.6c-0.1,0.2-0.1,0.4-0.1,0.6
		h3.9C23.3,14.9,23.1,14.4,22.8,14.2z"/>
	<rect x="19" y="9.5" fill="#FFFFFF" width="4.9" height="1.2"/>
</g>
</svg>
