<?xml version="1.0" encoding="utf-8"?>
<!-- Generator: Adobe Illustrator 18.0.0, SVG Export Plug-In . SVG Version: 6.00 Build 0)  -->
<!DOCTYPE svg PUBLIC "-//W3C//DTD SVG 1.1//EN" "http://www.w3.org/Graphics/SVG/1.1/DTD/svg11.dtd">
<svg version="1.1" id="Layer_1" xmlns="http://www.w3.org/2000/svg" xmlns:xlink="http://www.w3.org/1999/xlink" x="0px" y="0px"
	 viewBox="0 0 30 30" enable-background="new 0 0 30 30" xml:space="preserve">
<g>
	<path d="M23,10.7c0-1.7-1.3-3.6-3-3.6h-8.6v4h-0.6v-4h-0.4h-0.1v4H9.7V7.2c-0.2,0-0.3,0.1-0.5,0.2V11H8.6V7.7
		c-0.8,0.6-1.3,1.5-1.3,2.6v2h5c0.7-0.7,1.7-1.2,2.9-1.2c1.1,0,2.1,0.5,2.9,1.2H23v-2.1V10.7z M15.2,18.1c1.7,0,3.1-1.4,3.1-3.1
		c0-0.9-0.4-1.7-1.1-2.3c-0.2-0.2-0.5-0.4-0.7-0.5c-0.4-0.2-0.8-0.3-1.3-0.3c-0.5,0-0.9,0.1-1.3,0.3c-0.3,0.1-0.6,0.3-0.7,0.5
		c-0.6,0.6-1.1,1.4-1.1,2.3C12.1,16.8,13.4,18.1,15.2,18.1 M23.1,12.7h-4.6c0.5,0.6,0.7,1.5,0.7,2.3c0,2.2-1.8,4.1-4.1,4.1
		s-4.1-1.8-4.1-4.1c0-0.8,0.3-1.7,0.7-2.3H7.3v7.1c0,1.7,1.4,3.1,3.1,3.1h9.5c1.7,0,3.1-1.4,3.1-3.1L23.1,12.7L23.1,12.7z M29,15
		c0,7.7-6.3,14-14,14C7.3,29,1,22.7,1,15C1,7.3,7.3,1,15,1C22.7,1,29,7.3,29,15 M15.2,17.3c1.3,0,2.3-1,2.3-2.3s-1-2.3-2.3-2.3
		s-2.3,1-2.3,2.3C12.9,16.3,13.9,17.3,15.2,17.3 M21.6,8.8v1.7c0,0.3-0.2,0.5-0.5,0.5h-1.7c-0.3,0-0.5-0.2-0.5-0.5V8.8
		c0-0.3,0.2-0.5,0.5-0.5h1.7C21.4,8.4,21.6,8.6,21.6,8.8"/>
</g>
</svg>
