<?xml version="1.0" encoding="utf-8"?>
<!-- Generator: Adobe Illustrator 18.0.0, SVG Export Plug-In . SVG Version: 6.00 Build 0)  -->
<!DOCTYPE svg PUBLIC "-//W3C//DTD SVG 1.1//EN" "http://www.w3.org/Graphics/SVG/1.1/DTD/svg11.dtd">
<svg version="1.1" id="Layer_1" xmlns="http://www.w3.org/2000/svg" xmlns:xlink="http://www.w3.org/1999/xlink" x="0px" y="0px"
	 viewBox="0 0 30 30" enable-background="new 0 0 30 30" xml:space="preserve">
<g>
	<path d="M22.1,12.6c0.2,4.6-3.2,9.7-9.2,9.7c-1.8,0-3.6-0.6-5-1.5c1.7,0.2,3.4-0.3,4.8-1.4c-1.4,0-2.6-1-3-2.3
		c0.6,0.1,1,0.1,1.5-0.1c-1.6-0.3-2.7-1.7-2.6-3.2c0.5,0.3,0.9,0.4,1.5,0.4c-1.5-1-1.8-2.9-1-4.3c1.6,1.9,4,3.2,6.7,3.4
		c-0.5-2,1.1-4,3.1-4c0.9,0,1.7,0.4,2.4,1c0.7-0.2,1.5-0.5,2-0.8c-0.3,0.7-0.7,1.4-1.5,1.8c0.6-0.1,1.3-0.3,1.8-0.6
		C23.3,11.6,22.7,12.1,22.1,12.6 M15,1C7.3,1,1,7.3,1,15c0,7.7,6.3,14,14,14c7.7,0,14-6.3,14-14C29,7.3,22.7,1,15,1"/>
</g>
</svg>
